<svg xmlns="http://www.w3.org/2000/svg" width="1080" height="1350" viewBox="0 0 1080 1350">
  <rect width="1080" height="1350" fill="#f6eddb"/>
  <circle cx="86" cy="92" r="170" fill="#dce8cf"/>
  <circle cx="1010" cy="1260" r="230" fill="#e7d5b7"/>

  <text x="540" y="112" text-anchor="middle" font-family="Arial, sans-serif" font-size="30" font-weight="700" fill="#a46032">CÀ PHÊ XANH · SỐNG LÀNH</text>
  <text x="540" y="190" text-anchor="middle" font-family="Arial, sans-serif" font-size="64" font-weight="800" fill="#284f3d">VÒNG ĐỜI XANH</text>
  <text x="540" y="250" text-anchor="middle" font-family="Arial, sans-serif" font-size="64" font-weight="800" fill="#284f3d">CỦA BÃ CÀ PHÊ</text>
  <text x="540" y="305" text-anchor="middle" font-family="Arial, sans-serif" font-size="25" fill="#5c695f">Biến phần còn lại của mỗi tách cà phê thành giá trị mới cho môi trường</text>

  <path d="M540 410 L540 1040" stroke="#b98755" stroke-width="6" stroke-linecap="round" stroke-dasharray="12 18"/>

  <g transform="translate(95 365)">
    <rect width="390" height="250" rx="30" fill="#fffaf1" stroke="#d4b58b" stroke-width="3"/>
    <circle cx="70" cy="70" r="42" fill="#c17a43"/>
    <text x="70" y="82" text-anchor="middle" font-family="Arial, sans-serif" font-size="34" font-weight="700" fill="#fff">01</text>
    <path d="M215 80 h85 a26 26 0 0 1 -26 42 h-59 z" fill="none" stroke="#284f3d" stroke-width="10" stroke-linejoin="round"/>
    <path d="M300 90 q50 0 38 38 q-8 25 -38 22" fill="none" stroke="#284f3d" stroke-width="10"/>
    <path d="M230 55 q-20 -25 0 -48 M270 55 q-20 -25 0 -48" fill="none" stroke="#a46032" stroke-width="8" stroke-linecap="round"/>
    <text x="32" y="170" font-family="Arial, sans-serif" font-size="30" font-weight="700" fill="#284f3d">THƯỞNG THỨC</text>
    <text x="32" y="210" font-family="Arial, sans-serif" font-size="22" fill="#5c695f">Một tách cà phê hữu cơ,</text>
    <text x="32" y="240" font-family="Arial, sans-serif" font-size="22" fill="#5c695f">một lựa chọn có trách nhiệm.</text>
  </g>

  <g transform="translate(595 365)">
    <rect width="390" height="250" rx="30" fill="#fffaf1" stroke="#d4b58b" stroke-width="3"/>
    <circle cx="70" cy="70" r="42" fill="#c17a43"/>
    <text x="70" y="82" text-anchor="middle" font-family="Arial, sans-serif" font-size="34" font-weight="700" fill="#fff">02</text>
    <path d="M232 58 h76 l-8 100 h-60 z" fill="none" stroke="#284f3d" stroke-width="10" stroke-linejoin="round"/>
    <path d="M220 58 h100 M250 35 h40" stroke="#284f3d" stroke-width="10" stroke-linecap="round"/>
    <circle cx="260" cy="95" r="8" fill="#a46032"/>
    <circle cx="285" cy="120" r="8" fill="#a46032"/>
    <circle cx="260" cy="145" r="8" fill="#a46032"/>
    <text x="32" y="170" font-family="Arial, sans-serif" font-size="30" font-weight="700" fill="#284f3d">THU GOM BÃ</text>
    <text x="32" y="210" font-family="Arial, sans-serif" font-size="22" fill="#5c695f">Phân loại bã cà phê sạch</text>
    <text x="32" y="240" font-family="Arial, sans-serif" font-size="22" fill="#5c695f">ngay sau khi pha chế.</text>
  </g>

  <g transform="translate(95 710)">
    <rect width="390" height="250" rx="30" fill="#fffaf1" stroke="#d4b58b" stroke-width="3"/>
    <circle cx="70" cy="70" r="42" fill="#c17a43"/>
    <text x="70" y="82" text-anchor="middle" font-family="Arial, sans-serif" font-size="34" font-weight="700" fill="#fff">03</text>
    <path d="M210 150 q60 -80 120 0 z" fill="#a46032"/>
    <path d="M270 130 v-75 M270 90 q-60 -5 -55 -50 q50 0 55 50 M270 105 q55 -5 52 -45 q-48 0 -52 45" fill="none" stroke="#284f3d" stroke-width="10" stroke-linecap="round" stroke-linejoin="round"/>
    <text x="32" y="170" font-family="Arial, sans-serif" font-size="30" font-weight="700" fill="#284f3d">Ủ THÀNH PHÂN</text>
    <text x="32" y="210" font-family="Arial, sans-serif" font-size="22" fill="#5c695f">Kết hợp nguyên liệu phù hợp</text>
    <text x="32" y="240" font-family="Arial, sans-serif" font-size="22" fill="#5c695f">để tạo phân hữu cơ.</text>
  </g>

  <g transform="translate(595 710)">
    <rect width="390" height="250" rx="30" fill="#fffaf1" stroke="#d4b58b" stroke-width="3"/>
    <circle cx="70" cy="70" r="42" fill="#c17a43"/>
    <text x="70" y="82" text-anchor="middle" font-family="Arial, sans-serif" font-size="34" font-weight="700" fill="#fff">04</text>
    <path d="M205 155 q65 -50 130 0 z" fill="#a46032"/>
    <path d="M270 145 v-90 M270 95 q-58 0 -58 -48 q52 0 58 48 M270 115 q58 0 58 -48 q-52 0 -58 48" fill="none" stroke="#284f3d" stroke-width="10" stroke-linecap="round" stroke-linejoin="round"/>
    <circle cx="345" cy="55" r="25" fill="#e9b34f"/>
    <text x="32" y="170" font-family="Arial, sans-serif" font-size="30" font-weight="700" fill="#284f3d">NUÔI DƯỠNG CÂY</text>
    <text x="32" y="210" font-family="Arial, sans-serif" font-size="22" fill="#5c695f">Trả dưỡng chất về đất và</text>
    <text x="32" y="240" font-family="Arial, sans-serif" font-size="22" fill="#5c695f">khép lại một vòng đời xanh.</text>
  </g>

  <rect x="95" y="1060" width="890" height="170" rx="34" fill="#284f3d"/>
  <text x="540" y="1125" text-anchor="middle" font-family="Arial, sans-serif" font-size="30" font-weight="700" fill="#f6eddb">GÓI TRỌN TỰ NHIÊN VÀO TỪNG TÁCH CÀ PHÊ</text>
  <text x="540" y="1175" text-anchor="middle" font-family="Arial, sans-serif" font-size="24" fill="#dce8cf">Mang bã cà phê đến điểm thu gom của quán để cùng tạo thêm mảng xanh.</text>

  <text x="540" y="1295" text-anchor="middle" font-family="Arial, sans-serif" font-size="22" font-weight="700" fill="#a46032">#CaPheXanhSongLanh · Nội dung được hoàn thiện với sự hỗ trợ của AI</text>
</svg>
